<svg width="96" height="96" viewBox="0 0 96 96" fill="none" xmlns="http://www.w3.org/2000/svg">
  <rect width="96" height="96" rx="28" fill="#FFF5E8" />
  <circle cx="48" cy="48" r="28" fill="#FFD166" />
  <ellipse cx="35" cy="43" rx="4.5" ry="6" fill="#2A1E14" />
  <ellipse cx="61" cy="43" rx="4.5" ry="6" fill="#2A1E14" />
  <path
    d="M31 57.5C31 52.8056 34.8056 49 39.5 49H56.5C61.1944 49 65 52.8056 65 57.5C65 62.1944 61.1944 66 56.5 66H39.5C34.8056 66 31 62.1944 31 57.5Z"
    fill="#F28C3A"
  />
  <path
    d="M31 57.5C31 55.0147 33.0147 53 35.5 53H60.5C62.9853 53 65 55.0147 65 57.5V58.5H31V57.5Z"
    fill="#E37420"
  />
  <path
    d="M41 69.5C43.0334 71.1885 45.4855 72.1129 48 72.1129C50.5145 72.1129 52.9666 71.1885 55 69.5"
    stroke="#A94D2D"
    stroke-width="3.5"
    stroke-linecap="round"
  />
  <circle cx="27.5" cy="29.5" r="5.5" fill="#FFFFFF" fill-opacity="0.85" />
</svg>
